<?xml version="1.0" encoding="utf-8"?>
<!-- Generator: Adobe Illustrator 16.0.0, SVG Export Plug-In . SVG Version: 6.00 Build 0)  -->
<!DOCTYPE svg PUBLIC "-//W3C//DTD SVG 1.1//EN" "http://www.w3.org/Graphics/SVG/1.1/DTD/svg11.dtd">
<svg version="1.1" id="Layer_1" xmlns="http://www.w3.org/2000/svg" xmlns:xlink="http://www.w3.org/1999/xlink" x="0px" y="0px"
	 width="80px" height="80px" viewBox="0 0 80 80" enable-background="new 0 0 80 80" xml:space="preserve">
<path fill="#FFFFFF" d="M71.355,29.737c-0.006-0.04-0.016-0.077-0.023-0.116c-0.012-0.075-0.026-0.15-0.046-0.224
	c-0.011-0.043-0.027-0.086-0.041-0.129c-0.021-0.065-0.043-0.131-0.069-0.194c-0.019-0.044-0.039-0.089-0.06-0.131
	c-0.028-0.061-0.057-0.12-0.091-0.177c-0.024-0.042-0.05-0.083-0.075-0.124c-0.036-0.056-0.073-0.11-0.113-0.162
	c-0.029-0.04-0.06-0.078-0.092-0.116c-0.042-0.049-0.086-0.098-0.133-0.144c-0.035-0.036-0.069-0.072-0.106-0.105
	c-0.049-0.044-0.1-0.086-0.15-0.127c-0.041-0.031-0.08-0.062-0.121-0.091c-0.016-0.01-0.03-0.023-0.045-0.033L41.791,8.933
	c-0.896-0.598-2.063-0.598-2.961,0L10.432,27.864c-0.015,0.01-0.028,0.023-0.044,0.033c-0.042,0.029-0.081,0.06-0.12,0.091
	c-0.052,0.041-0.103,0.083-0.151,0.127c-0.038,0.033-0.072,0.069-0.107,0.105c-0.046,0.046-0.09,0.095-0.132,0.144
	c-0.032,0.038-0.063,0.077-0.092,0.116c-0.04,0.052-0.077,0.106-0.112,0.162c-0.027,0.041-0.052,0.082-0.077,0.124
	c-0.033,0.057-0.062,0.116-0.091,0.177c-0.021,0.042-0.042,0.086-0.06,0.131c-0.026,0.063-0.047,0.129-0.069,0.194
	c-0.014,0.042-0.029,0.085-0.042,0.129c-0.02,0.074-0.033,0.149-0.047,0.224c-0.006,0.04-0.016,0.077-0.021,0.116
	c-0.016,0.114-0.024,0.23-0.024,0.348v18.931c0,0.117,0.009,0.233,0.024,0.35c0.005,0.038,0.015,0.077,0.021,0.114
	c0.014,0.077,0.027,0.152,0.047,0.225c0.012,0.045,0.028,0.086,0.042,0.129c0.021,0.066,0.042,0.131,0.069,0.196
	c0.018,0.045,0.039,0.088,0.06,0.129c0.029,0.061,0.058,0.119,0.091,0.179c0.024,0.041,0.05,0.082,0.077,0.123
	c0.035,0.055,0.073,0.108,0.112,0.16c0.029,0.041,0.06,0.079,0.092,0.116c0.042,0.05,0.085,0.099,0.132,0.145
	c0.036,0.036,0.07,0.071,0.107,0.104c0.048,0.045,0.099,0.088,0.151,0.129c0.039,0.03,0.079,0.062,0.12,0.091
	c0.016,0.011,0.029,0.023,0.044,0.032L38.83,70.17c0.448,0.299,0.966,0.45,1.482,0.45c0.516,0,1.032-0.151,1.479-0.45l28.398-18.933
	c0.015-0.009,0.029-0.021,0.045-0.032c0.041-0.028,0.08-0.061,0.121-0.091c0.051-0.041,0.102-0.084,0.15-0.129
	c0.037-0.032,0.071-0.067,0.106-0.104c0.047-0.046,0.091-0.095,0.133-0.145c0.032-0.037,0.062-0.075,0.092-0.116
	c0.04-0.052,0.077-0.105,0.113-0.16c0.025-0.041,0.051-0.082,0.075-0.123c0.034-0.06,0.062-0.118,0.091-0.179
	c0.021-0.041,0.041-0.084,0.06-0.129c0.026-0.065,0.048-0.13,0.069-0.196c0.014-0.043,0.03-0.084,0.041-0.129
	c0.02-0.072,0.034-0.147,0.046-0.225c0.008-0.037,0.018-0.076,0.023-0.114c0.015-0.116,0.023-0.232,0.023-0.35V30.085
	C71.379,29.967,71.37,29.852,71.355,29.737z M42.98,16.143L63.9,30.088l-9.344,6.251L42.98,28.596V16.143z M37.641,16.143v12.453
	L26.066,36.34l-9.345-6.251L37.641,16.143z M14.583,35.083l6.68,4.468l-6.68,4.469V35.083z M37.641,62.959l-20.92-13.944l9.345-6.25
	l11.575,7.74V62.959z M40.312,45.867l-9.444-6.316l9.444-6.316l9.442,6.316L40.312,45.867z M42.98,62.959V50.505l11.576-7.74
	l9.344,6.25L42.98,62.959z M66.039,44.02l-6.681-4.469l6.681-4.468V44.02z"/>
</svg>
