<?xml version="1.0" encoding="utf-8"?>
<!-- Generator: Adobe Illustrator 16.0.0, SVG Export Plug-In . SVG Version: 6.00 Build 0)  -->
<!DOCTYPE svg PUBLIC "-//W3C//DTD SVG 1.1//EN" "http://www.w3.org/Graphics/SVG/1.1/DTD/svg11.dtd">
<svg version="1.1" id="Layer_1" xmlns="http://www.w3.org/2000/svg" xmlns:xlink="http://www.w3.org/1999/xlink" x="0px" y="0px"
	 width="100px" height="100px" viewBox="0 0 100 100" enable-background="new 0 0 100 100" xml:space="preserve">
<path fill="#FFFFFF" d="M78.223,60h0.002l-0.131-0.271c-0.213-0.251-0.489-0.611-0.743-0.838l-41.12-42.656l-5.376,58.853
	c-0.329,1.37-0.302,2.68,0.148,3.91c2.332,6.376,14.722,7.499,28.214,2.567c13.49-4.933,22.329-13.56,19.998-19.936
	C78.965,60.946,78.798,61,78.223,60z M72.429,56.399c-5.382-1.354-13.247-0.616-21.531,2.413
	c-8.088,2.957-14.465,7.325-17.777,11.724l4.568-50.146L72.429,56.399z M58.575,79.812c-12.095,4.422-23.925,3.75-25.833-1.469
	c-0.123-0.334-0.2-0.683-0.238-1.04l0.179-1.967c1.31-4.976,8.896-11.139,18.852-14.778c10.409-3.806,20.616-3.834,24.478-0.442
	l0.642,0.664c0.305,0.383,0.55,0.797,0.715,1.248C79.278,67.245,70.67,75.39,58.575,79.812z"/>
</svg>
