<?xml version="1.0" encoding="utf-8"?>
<!-- Generator: Adobe Illustrator 16.0.0, SVG Export Plug-In . SVG Version: 6.00 Build 0)  -->
<!DOCTYPE svg PUBLIC "-//W3C//DTD SVG 1.1//EN" "http://www.w3.org/Graphics/SVG/1.1/DTD/svg11.dtd">
<svg version="1.1" id="Layer_1" xmlns="http://www.w3.org/2000/svg" xmlns:xlink="http://www.w3.org/1999/xlink" x="0px" y="0px"
	 width="100px" height="100px" viewBox="0 0 100 100" enable-background="new 0 0 100 100" xml:space="preserve">
<path fill="#FFFFFF" d="M88.07,31.139L88,31.069V31h0.057L69.129,12H11v56.599l20,20.165V89h57V31.209L88.07,31.139z M86.176,31H69
	V13.92L86.176,31z M86,86.021L69,68.548V32h17V86.021z M67,68.152l-35-0.312V32h35V68.152z M12,14.323l19,17.568v35.938l-19-0.161
	V14.323z M67,31H32.055L13.8,13H67V31z M13.608,69.003L31,69.156v17.706L13.608,69.003z M32,69.168l35.906,0.58L86.436,88H32V69.168
	z"/>
</svg>
