<?xml version="1.0" encoding="utf-8"?>
<!-- Generator: Adobe Illustrator 16.0.0, SVG Export Plug-In . SVG Version: 6.00 Build 0)  -->
<!DOCTYPE svg PUBLIC "-//W3C//DTD SVG 1.1//EN" "http://www.w3.org/Graphics/SVG/1.1/DTD/svg11.dtd">
<svg version="1.1" id="Layer_1" xmlns="http://www.w3.org/2000/svg" xmlns:xlink="http://www.w3.org/1999/xlink" x="0px" y="0px"
	 width="80px" height="80px" viewBox="0 0 80 80" enable-background="new 0 0 80 80" xml:space="preserve">
<path fill-rule="evenodd" clip-rule="evenodd" fill="#FFFFFF" d="M40.638,3.773c-19.945,0-36.115,16.175-36.115,36.122
	c0,15.957,10.346,29.495,24.702,34.272c1.806,0.329,2.465-0.786,2.465-1.742c0-0.857-0.031-3.131-0.048-6.144
	c-10.047,2.182-12.169-4.843-12.169-4.843c-1.641-4.171-4.01-5.282-4.01-5.282c-3.278-2.239,0.249-2.196,0.249-2.196
	c3.625,0.254,5.533,3.724,5.533,3.724c3.222,5.518,8.452,3.924,10.51,3.001c0.328-2.334,1.261-3.928,2.295-4.829
	c-8.021-0.913-16.452-4.01-16.452-17.85c0-3.945,1.407-7.166,3.716-9.69c-0.371-0.915-1.612-4.586,0.354-9.558
	c0,0,3.031-0.976,9.932,3.702c2.881-0.8,5.971-1.204,9.043-1.218c3.068,0.014,6.156,0.417,9.042,1.218
	c6.896-4.677,9.923-3.702,9.923-3.702c1.972,4.971,0.73,8.643,0.359,9.558c2.312,2.525,3.712,5.746,3.712,9.69
	c0,13.875-8.445,16.929-16.491,17.821c1.298,1.117,2.45,3.322,2.45,6.69c0,4.828-0.043,8.722-0.043,9.908
	c0,0.966,0.649,2.087,2.484,1.737c14.341-4.786,24.678-18.314,24.678-34.268C76.758,19.948,60.586,3.773,40.638,3.773z"/>
</svg>
