<?xml version="1.0" encoding="utf-8"?>
<!-- Generator: Adobe Illustrator 16.0.0, SVG Export Plug-In . SVG Version: 6.00 Build 0)  -->
<!DOCTYPE svg PUBLIC "-//W3C//DTD SVG 1.1//EN" "http://www.w3.org/Graphics/SVG/1.1/DTD/svg11.dtd">
<svg version="1.1" id="Layer_1" xmlns="http://www.w3.org/2000/svg" xmlns:xlink="http://www.w3.org/1999/xlink" x="0px" y="0px"
	 width="80.263px" height="80.263px" viewBox="0 0 80.263 80.263" enable-background="new 0 0 80.263 80.263" xml:space="preserve">
<g id="p70a19_3_">
	<g>
		<path fill-rule="evenodd" clip-rule="evenodd" fill="#FFFFFF" d="M33.023,26.176c1.604-4.763,3.029-9.147,4.562-13.495
			c0.881-2.503,2.738-3.937,5.403-4.162c2.663-0.225,4.705,0.872,6.048,3.172c1.016,1.739,1.044,3.568,0.39,5.465
			c-1.196,3.467-2.336,6.954-3.357,10.011c1.76,0.92,3.359,1.796,5,2.579c0.344,0.164,0.879,0.068,1.279-0.054
			c4.261-1.3,8.326,1.386,8.422,5.858c0.125,5.824,0.223,11.675-0.143,17.481c-0.627,9.91-9.096,17.986-18.769,18.684
			c-11.164,0.803-20.06-6.98-21.961-16.35c-0.403-1.98-0.936-3.936-1.447-5.893c-0.72-2.744,0.449-5.539,3.036-7.163
			c2.97-1.863,2.972-1.863,1.863-5.177c-2.114-6.316-4.291-12.612-6.327-18.952c-1.48-4.604,1.884-8.82,6.619-8.355
			c2.795,0.273,4.563,1.938,5.444,4.569C30.353,18.169,31.611,21.948,33.023,26.176z M40.03,44.168
			c-0.969,1.047-1.689,1.874-2.46,2.649c-0.735,0.738-1.453,1.524-2.304,2.105c-1.297,0.887-2.69,1.636-4.065,2.404
			c-1.428,0.799-2.72,0.524-3.431-0.671c-0.692-1.172-0.277-2.413,1.154-3.293c1.385-0.854,2.809-1.646,4.188-2.507
			c0.903-0.562,1.104-1.435,0.622-2.327c-0.503-0.928-1.391-1.131-2.303-0.625c-2.57,1.426-5.125,2.879-7.656,4.373
			c-0.881,0.52-1.34,1.534-0.578,2.247c0.986,0.92,0.832,1.939,0.855,3.001c0.183,7.522,5.833,14.128,13.166,15.386
			c7.742,1.326,15.303-2.891,17.915-10.148c0.669-1.863,0.869-3.893,1.335-6.083c-2.756,0.43-4.771-0.046-6.483-1.631
			c-0.228-0.209-0.75-0.257-1.078-0.171C44.691,50,42.155,48.795,40.03,44.168z M37.167,39.233
			c2.667-7.959,5.268-15.717,7.865-23.476c0.378-1.13,0.283-2.154-0.998-2.575c-1.302-0.427-1.934,0.405-2.306,1.513
			c-1.998,5.97-4.018,11.933-5.969,17.917c-0.474,1.448-1.199,2.503-2.829,2.439c-1.524-0.059-2.199-1.079-2.646-2.473
			c-1.771-5.491-3.638-10.953-5.459-16.427c-0.384-1.153-0.944-2.052-2.368-1.668c-1.158,0.312-1.435,1.226-0.901,2.853
			c0.621,1.895,1.26,3.783,1.895,5.672c1.686,5.017,3.373,10.034,5.082,15.118C31.649,36.495,34.474,36.746,37.167,39.233z
			 M52.792,40.118c-0.018,0-0.035,0-0.051,0c0,1.415-0.012,2.832,0.002,4.248c0.009,1.112,0.584,1.859,1.686,1.875
			c1.089,0.015,1.752-0.683,1.762-1.804c0.026-2.885,0.029-5.77-0.002-8.656c-0.012-1.106-0.645-1.828-1.755-1.799
			c-1.106,0.029-1.663,0.744-1.646,1.885C52.81,37.284,52.792,38.701,52.792,40.118z M48.096,38.7c0.036,0,0.072,0,0.107,0
			c0-1.47,0.041-2.939-0.012-4.408c-0.04-1.07-0.559-1.827-1.743-1.816c-1.076,0.011-1.661,0.653-1.672,1.696
			c-0.033,2.942-0.032,5.886,0.003,8.827c0.011,1.061,0.677,1.686,1.702,1.679c1.032-0.01,1.63-0.612,1.62-1.721
			C48.084,41.538,48.096,40.119,48.096,38.7z"/>
	</g>
</g>
</svg>
