<?xml version="1.0" encoding="utf-8"?>
<!-- Generator: Adobe Illustrator 16.0.0, SVG Export Plug-In . SVG Version: 6.00 Build 0)  -->
<!DOCTYPE svg PUBLIC "-//W3C//DTD SVG 1.1//EN" "http://www.w3.org/Graphics/SVG/1.1/DTD/svg11.dtd">
<svg version="1.1" id="Layer_1" xmlns="http://www.w3.org/2000/svg" xmlns:xlink="http://www.w3.org/1999/xlink" x="0px" y="0px"
	 width="80px" height="80px" viewBox="0 0 80 80" enable-background="new 0 0 80 80" xml:space="preserve">
<g>
	<path fill="none" stroke="#FFFFFF" stroke-width="2" stroke-linecap="round" stroke-miterlimit="10" d="M60.03,32.754
		c0.283-1.49,0.353-14.773-5.599-21.292c-0.783-0.858-1.197-4.237-2.079-4.89C47.32,2.962,38.566,3.77,33.83,5.744
		c-1.732,0.693-1.18,3.248-2.338,4.498c0,0-7.148,5.09-7.721,14.072c-0.256,3.285-0.824,6.166-2.814,9.94
		c0,0-4.205,6.375-2.773,9.174c1.746,3.355,6.56,2.97,10.909-3.92c3.399-5.388,3.372-7.079,3.659-8.366
		c0.288-1.234,4.385-1.558,6.312-5.947"/>
	<path fill="none" stroke="#FFFFFF" stroke-width="2" stroke-linecap="round" stroke-miterlimit="10" d="M38.416,48.486
		c-0.969,0.324-1.922,11.209-2.635,17.887c-0.402,3.648-1.127,9.557-4.768,9.563c-2.72-0.007-3.396-3.944-3.49-6.507
		c-0.094-2.613-0.521-22.811-1.894-25.249"/>
	<path fill="none" stroke="#FFFFFF" stroke-width="2" stroke-linecap="round" stroke-miterlimit="10" d="M46.173,46.259
		c0.242,0.754,5.146,4.327,7.886-0.742c1.486-3.204-1.057-8.239-2.245-12.015c-1.136-3.622-6.503-7.305-8.118-0.945"/>
	<path fill="none" stroke="#FFFFFF" stroke-width="2" stroke-linecap="round" stroke-miterlimit="10" d="M42.916,50.926
		c-4.956,1.105-5.067-5.713-5.745-9.649c-0.281-1.585-0.553-5.632,0.413-9.339c1.977-4.596,5.312-1.316,5.957,0.57
		C45.373,37.914,48.996,49.546,42.916,50.926z"/>
	<path fill="none" stroke="#FFFFFF" stroke-width="2" stroke-linecap="round" stroke-miterlimit="10" d="M54.732,42.788
		c-0.884-0.807,3.605,4.198,6.36,0.154c2.305-3.372,0.234-7.749-1.563-11.154c-1.747-3.406-4.685-4.334-6.211-3.593
		c-2.188,1.113-1.879,4.287-1.879,4.287"/>
</g>
</svg>
