<?xml version="1.0" encoding="utf-8"?>
<!-- Generator: Adobe Illustrator 16.0.0, SVG Export Plug-In . SVG Version: 6.00 Build 0)  -->
<!DOCTYPE svg PUBLIC "-//W3C//DTD SVG 1.1//EN" "http://www.w3.org/Graphics/SVG/1.1/DTD/svg11.dtd">
<svg version="1.1" id="Layer_1" xmlns="http://www.w3.org/2000/svg" xmlns:xlink="http://www.w3.org/1999/xlink" x="0px" y="0px"
	 width="80px" height="80px" viewBox="0 0 80 80" enable-background="new 0 0 80 80" xml:space="preserve">
<g>
	<path fill="none" stroke="#FFFFFF" stroke-width="2" stroke-linecap="round" stroke-miterlimit="10" d="M-58.326,41.762
		c-0.283,1.491-0.353,14.774,5.599,21.292c0.783,0.858,1.197,4.237,2.079,4.89c5.032,3.61,13.787,2.803,18.523,0.828
		c1.733-0.693,1.18-3.248,2.338-4.498c0,0,7.148-5.09,7.721-14.072c0.255-3.286,0.824-6.166,2.814-9.941
		c0,0,4.205-6.375,2.773-9.173c-1.745-3.356-6.559-2.97-10.909,3.919c-3.399,5.388-3.372,7.08-3.659,8.367
		c-0.288,1.234-4.385,1.557-6.313,5.947"/>
	<path fill="none" stroke="#FFFFFF" stroke-width="2" stroke-linecap="round" stroke-miterlimit="10" d="M-36.711,26.03
		c0.969-0.324,1.922-11.209,2.635-17.887c0.402-3.648,1.127-9.556,4.768-9.563c2.719,0.007,3.396,3.944,3.489,6.507
		c0.094,2.613,0.521,22.81,1.894,25.249"/>
	<path fill="none" stroke="#FFFFFF" stroke-width="2" stroke-linecap="round" stroke-miterlimit="10" d="M-44.469,28.257
		c-0.242-0.753-5.146-4.327-7.885,0.743c-1.487,3.204,1.056,8.239,2.245,12.014c1.136,3.622,6.503,7.305,8.118,0.945"/>
	<path fill="none" stroke="#FFFFFF" stroke-width="2" stroke-linecap="round" stroke-miterlimit="10" d="M-41.212,23.589
		c4.956-1.105,5.067,5.713,5.745,9.65c0.281,1.585,0.553,5.631-0.413,9.338c-1.977,4.596-5.312,1.317-5.957-0.57
		C-43.668,36.602-47.292,24.97-41.212,23.589z"/>
	<path fill="none" stroke="#FFFFFF" stroke-width="2" stroke-linecap="round" stroke-miterlimit="10" d="M-53.028,31.728
		c0.884,0.807-3.606-4.198-6.361-0.154c-2.304,3.371-0.234,7.748,1.564,11.154c1.747,3.406,4.685,4.334,6.211,3.592
		c2.187-1.113,1.879-4.287,1.879-4.287"/>
</g>
<g>
	<path fill="none" stroke="#FFFFFF" stroke-width="2" stroke-linecap="round" stroke-miterlimit="10" d="M41.643,56.877
		c0.762-8.286,4.93-9.454,4.676-10.116c-0.661-1.677-7.828-3.761-9.403-4.675c-3.05-1.78-4.219-6.558,2.135-7.27
		c6.354-0.711,11.589,2.745,13.724,4.168c2.135,1.423,6.506,7.37,6.049,13.013c-0.457,5.642-2.636,13.61-6.913,17.333
		c-0.813,0.864-0.711,3.812-1.931,4.523c-5.592,3.304-12.759,3.101-18.706,0.355c-1.423-0.66-1.474-3.761-2.643-4.879
		c-6.151-5.998-7.93-20.078-7.676-21.501"/>
	<path fill="none" stroke="#FFFFFF" stroke-width="2" stroke-linecap="round" stroke-miterlimit="10" d="M51.707,37.104
		c0,0,6.811-19.671,7.521-22.009c0.763-2.338,1.881-5.896-0.559-6.76c-3.254-1.169-5.337,4.066-6.861,7.167
		c-1.525,3.203-8.541,16.977-9.303,16.927c-0.762,0-8.183-21.958-8.183-21.958s-2.034-6.761-5.338-6.202
		c-3.964,0.508-2.287,6.506-1.779,8.387c2.034,7.472,4.321,14.283,6.456,21.705"/>
	<path fill="none" stroke="#FFFFFF" stroke-width="2" stroke-linecap="round" stroke-miterlimit="10" d="M35.085,35.731
		c0,0-4.778-4.626-7.37,1.83c-0.864,3.863,0.864,8.845,2.592,12.708c1.626,3.558,4.016,5.185,6.557,4.016
		c2.592-1.17,3.457-4.88,0.916-11.792"/>
	<path fill="none" stroke="#FFFFFF" stroke-width="2" stroke-linecap="round" stroke-miterlimit="10" d="M27.511,38.781
		c0,0-4.218-3.66-6.607,0c-2.542,3.863,0,9.861,2.134,13.622c2.135,3.761,5.033,4.016,6.557,2.948
		c1.932-1.321,2.034-2.745,2.034-2.745"/>
</g>
</svg>
