<?xml version="1.0" encoding="utf-8"?>
<!-- Generator: Adobe Illustrator 16.0.0, SVG Export Plug-In . SVG Version: 6.00 Build 0)  -->
<!DOCTYPE svg PUBLIC "-//W3C//DTD SVG 1.1//EN" "http://www.w3.org/Graphics/SVG/1.1/DTD/svg11.dtd">
<svg version="1.1" id="Layer_1" xmlns="http://www.w3.org/2000/svg" xmlns:xlink="http://www.w3.org/1999/xlink" x="0px" y="0px"
	 width="80px" height="80px" viewBox="0 0 80 80" enable-background="new 0 0 80 80" xml:space="preserve">
<path fill="#FFFFFF" d="M60.02,8.131H20.917C14.125,8.131,8.6,13.657,8.6,20.45v13.007v26.094c0,6.792,5.525,12.318,12.318,12.318
	H60.02c6.792,0,12.317-5.526,12.317-12.318V33.457V20.45C72.337,13.657,66.812,8.131,60.02,8.131z M63.554,15.479l1.408-0.006v1.404
	v9.399l-10.77,0.036l-0.036-10.803L63.554,15.479z M31.374,33.457c2.04-2.826,5.352-4.677,9.094-4.677
	c3.745,0,7.057,1.851,9.096,4.677c1.331,1.844,2.126,4.099,2.126,6.543c0,6.185-5.037,11.217-11.222,11.217
	c-6.184,0-11.217-5.032-11.217-11.217C29.251,37.555,30.046,35.3,31.374,33.457z M66.127,59.551c0,3.37-2.737,6.107-6.107,6.107
	H20.917c-3.371,0-6.107-2.737-6.107-6.107V33.457h9.516c-0.823,2.023-1.285,4.23-1.285,6.543c0,9.61,7.817,17.427,17.427,17.427
	c9.611,0,17.428-7.816,17.428-17.427c0-2.313-0.464-4.52-1.284-6.543h9.516V59.551z"/>
</svg>
