<?xml version="1.0" encoding="utf-8"?>
<!-- Generator: Adobe Illustrator 16.0.0, SVG Export Plug-In . SVG Version: 6.00 Build 0)  -->
<!DOCTYPE svg PUBLIC "-//W3C//DTD SVG 1.1//EN" "http://www.w3.org/Graphics/SVG/1.1/DTD/svg11.dtd">
<svg version="1.1" id="Layer_1" xmlns="http://www.w3.org/2000/svg" xmlns:xlink="http://www.w3.org/1999/xlink" x="0px" y="0px"
	 width="80px" height="80px" viewBox="0 0 80 80" enable-background="new 0 0 80 80" xml:space="preserve">
<path fill="#FFFFFF" d="M22.037,69.471H9.524v-40.04h12.513V69.471z M15.461,24.421H15.37c-4.529,0-7.462-3.062-7.462-6.94
	c0-3.951,3.021-6.952,7.644-6.952c4.614,0,7.452,2.994,7.54,6.944C23.091,21.352,20.165,24.421,15.461,24.421z M72.094,69.471
	H57.904v-20.72c0-5.426-2.215-9.126-7.098-9.126c-3.729,0-5.806,2.499-6.773,4.909c-0.362,0.863-0.303,2.065-0.303,3.272v21.665
	H29.673c0,0,0.185-36.7,0-40.04H43.73v6.283c0.83-2.745,5.317-6.666,12.487-6.666c8.888,0,15.876,5.755,15.876,18.158V69.471z"/>
</svg>
