<?xml version="1.0" encoding="utf-8"?>
<!-- Generator: Adobe Illustrator 16.0.0, SVG Export Plug-In . SVG Version: 6.00 Build 0)  -->
<!DOCTYPE svg PUBLIC "-//W3C//DTD SVG 1.1//EN" "http://www.w3.org/Graphics/SVG/1.1/DTD/svg11.dtd">
<svg version="1.1" id="Layer_1" xmlns="http://www.w3.org/2000/svg" xmlns:xlink="http://www.w3.org/1999/xlink" x="0px" y="0px"
	 width="84.5px" height="84.5px" viewBox="0 0 84.5 84.5" enable-background="new 0 0 84.5 84.5" xml:space="preserve">
<g>
	<g>
		<path fill="#FFFFFF" d="M41.75,76.928c-19.003,0-34.463-15.461-34.463-34.465C7.287,23.46,22.747,8,41.75,8
			c19.006,0,34.463,15.46,34.463,34.463C76.213,61.467,60.754,76.928,41.75,76.928z M41.75,9.827
			c-17.995,0-32.634,14.642-32.634,32.636c0,17.997,14.64,32.635,32.634,32.635c17.997,0,32.635-14.638,32.635-32.635
			C74.385,24.469,59.747,9.827,41.75,9.827z"/>
	</g>
	<path fill="#FFFFFF" d="M63.382,29.768c-0.167-0.264-0.457-0.424-0.773-0.424c0,0-10.447,0-10.546,0
		c-0.375,0-0.47,0.115-0.47,0.494c0,0.144,0,0.712,0,0.824c0,0.437,0.169,0.509,0.444,0.509c0.109,0,4.083,0,4.083,0L42.376,61.003
		h-6.884L20.906,31.171h10.143c0,0,8.825,20.221,8.876,20.327c0.084,0.176,0.114,0.266,0.38,0.266c0.312,0,1.143-0.011,1.4-0.011
		c0.265,0,0.265-0.226,0.161-0.455c-0.069-0.148-9.383-21.407-9.383-21.407c-0.144-0.333-0.474-0.547-0.838-0.547H19.441
		c-0.316,0-0.61,0.163-0.777,0.431c-0.166,0.268-0.183,0.602-0.046,0.884l15.485,31.659c0.151,0.312,0.47,0.512,0.82,0.512h12.801
		c0.352,0,0.674-0.207,0.826-0.524l14.887-31.659C63.571,30.363,63.548,30.033,63.382,29.768z M47.143,61.003h-2.754l13.746-29.832
		h3.039L47.143,61.003z"/>
</g>
</svg>
