<?xml version="1.0" encoding="utf-8"?>
<!-- Generator: Adobe Illustrator 16.0.0, SVG Export Plug-In . SVG Version: 6.00 Build 0)  -->
<!DOCTYPE svg PUBLIC "-//W3C//DTD SVG 1.1//EN" "http://www.w3.org/Graphics/SVG/1.1/DTD/svg11.dtd">
<svg version="1.1" id="Layer_1" xmlns="http://www.w3.org/2000/svg" xmlns:xlink="http://www.w3.org/1999/xlink" x="0px" y="0px"
	 width="100px" height="100px" viewBox="0 0 100 100" enable-background="new 0 0 100 100" xml:space="preserve">
<g>
	<g>
		<path fill="#FFFFFF" d="M50,90.81c-22.503,0-40.81-18.308-40.81-40.811c0-22.502,18.307-40.81,40.81-40.81
			c22.504,0,40.811,18.308,40.811,40.81C90.81,72.502,72.503,90.81,50,90.81z M50,11.353c-21.31,0-38.645,17.338-38.645,38.646
			c0,21.31,17.335,38.646,38.645,38.646c21.311,0,38.646-17.337,38.646-38.646C88.645,28.69,71.31,11.353,50,11.353z"/>
	</g>
	<path fill="#FFFFFF" d="M75.615,34.966c-0.196-0.312-0.541-0.502-0.912-0.502c0,0-12.372,0-12.489,0
		c-0.442,0-0.557,0.137-0.557,0.586c0,0.17,0,0.844,0,0.975c0,0.518,0.2,0.604,0.526,0.604c0.131,0,4.835,0,4.835,0L50.742,71.953
		h-8.152L25.317,36.628h12.011c0,0,10.451,23.945,10.511,24.07c0.101,0.209,0.136,0.314,0.451,0.314
		c0.369,0,1.354-0.012,1.658-0.012c0.312,0,0.312-0.268,0.19-0.539c-0.082-0.176-11.11-25.35-11.11-25.35
		c-0.171-0.394-0.562-0.648-0.993-0.648H23.582c-0.373,0-0.723,0.193-0.919,0.51s-0.217,0.713-0.055,1.049l18.336,37.488
		c0.181,0.369,0.558,0.605,0.971,0.605h15.16c0.417,0,0.799-0.242,0.979-0.621l17.628-37.488
		C75.839,35.671,75.814,35.279,75.615,34.966z M56.386,71.953h-3.262L69.4,36.628h3.599L56.386,71.953z"/>
</g>
</svg>
