<?xml version="1.0" encoding="utf-8"?>
<!-- Generator: Adobe Illustrator 16.0.0, SVG Export Plug-In . SVG Version: 6.00 Build 0)  -->
<!DOCTYPE svg PUBLIC "-//W3C//DTD SVG 1.1//EN" "http://www.w3.org/Graphics/SVG/1.1/DTD/svg11.dtd">
<svg version="1.1" id="Layer_1" xmlns="http://www.w3.org/2000/svg" xmlns:xlink="http://www.w3.org/1999/xlink" x="0px" y="0px"
	 width="90px" height="90px" viewBox="0 0 90 90" enable-background="new 0 0 90 90" xml:space="preserve">
<g>
	<g>
		<path fill="#FFFFFF" d="M44.499,79.808c-19.47,0-35.309-15.84-35.309-35.31c0-19.469,15.839-35.309,35.309-35.309
			c19.471,0,35.31,15.84,35.31,35.309C79.808,63.968,63.969,79.808,44.499,79.808z M44.499,11.061
			c-18.437,0-33.436,15-33.436,33.437c0,18.438,14.999,33.438,33.436,33.438c18.438,0,33.436-15,33.436-33.438
			C77.935,26.062,62.937,11.061,44.499,11.061z"/>
	</g>
	<path fill="#FFFFFF" d="M66.661,31.491c-0.17-0.27-0.468-0.434-0.79-0.434c0,0-10.704,0-10.806,0c-0.383,0-0.481,0.118-0.481,0.507
		c0,0.147,0,0.73,0,0.843c0,0.448,0.173,0.522,0.456,0.522c0.113,0,4.183,0,4.183,0L45.141,63.493h-7.053L23.143,32.929h10.392
		c0,0,9.042,20.717,9.094,20.826c0.087,0.181,0.117,0.272,0.39,0.272c0.319,0,1.171-0.011,1.435-0.011
		c0.27,0,0.27-0.231,0.165-0.466c-0.071-0.152-9.613-21.933-9.613-21.933c-0.148-0.341-0.486-0.561-0.859-0.561H21.642
		c-0.323,0-0.625,0.167-0.795,0.441s-0.188,0.617-0.047,0.907l15.864,32.436c0.156,0.319,0.482,0.523,0.84,0.523H50.62
		c0.361,0,0.691-0.21,0.847-0.537l15.251-32.435C66.855,32.102,66.833,31.763,66.661,31.491z M50.024,63.493h-2.822l14.082-30.564
		h3.114L50.024,63.493z"/>
</g>
</svg>
