<?xml version="1.0" encoding="utf-8"?>
<!-- Generator: Adobe Illustrator 16.0.0, SVG Export Plug-In . SVG Version: 6.00 Build 0)  -->
<!DOCTYPE svg PUBLIC "-//W3C//DTD SVG 1.1//EN" "http://www.w3.org/Graphics/SVG/1.1/DTD/svg11.dtd">
<svg version="1.1" id="Layer_1" xmlns="http://www.w3.org/2000/svg" xmlns:xlink="http://www.w3.org/1999/xlink" x="0px" y="0px"
	 width="480px" height="852px" viewBox="0 0 480 852" enable-background="new 0 0 480 852" xml:space="preserve">
<g>
	<g>
		<g>
			<path fill="#FFFFFF" d="M150.77,133.675c-0.021-0.019-0.043-0.03-0.063-0.046l0.005-0.006L88.275,82.207l-0.004,0.004
				c-2.033-1.957-4.914-2.995-8.352-2.995c-8.025,0-18.314,5.419-26.852,14.149c-12.563,12.847-17.195,28.771-10.318,35.498
				c0.154,0.151,0.344,0.261,0.508,0.4l-0.221,0.272l62.436,51.415l0.223-0.271c2.004,1.71,4.697,2.647,7.902,2.647l0,0
				c8.025,0,18.314-5.422,26.85-14.149c6.018-6.153,10.434-13.175,12.426-19.773C154.929,142.598,154.181,137.014,150.77,133.675z
				 M54.385,94.644c8.203-8.388,17.99-13.595,25.535-13.595c3.021,0,5.42,0.846,7.131,2.52c2.898,2.838,3.478,7.768,1.631,13.884
				c-1.91,6.319-6.164,13.077-11.979,19.021c-8.205,8.387-17.988,13.596-25.536,13.596c0,0,0,0-0.003,0
				c-3.02,0-5.418-0.848-7.127-2.521C37.885,121.53,42.526,106.768,54.385,94.644z M51.164,131.906L51.164,131.906
				c8.027,0,18.312-5.419,26.848-14.15c6.02-6.15,10.433-13.171,12.428-19.772c1.293-4.283,1.472-8.083,0.579-11.144l53.362,43.946
				c-0.655-0.085-1.32-0.157-2.023-0.157c-8.027,0-18.316,5.419-26.85,14.148c-10.549,10.781-15.474,23.711-12.729,31.57
				L48.525,131.67C49.363,131.82,50.238,131.906,51.164,131.906z M151.114,148.869c-1.908,6.32-6.16,13.074-11.979,19.02
				c-8.203,8.385-17.987,13.596-25.538,13.596l0,0c-3.018,0-5.416-0.849-7.129-2.521c-6.151-6.017-1.51-20.778,10.352-32.902
				c8.203-8.388,17.987-13.596,25.537-13.596c2.971,0,5.332,0.832,7.035,2.45l0.107,0.086
				C152.385,137.839,152.962,142.764,151.114,148.869z"/>
		</g>
	</g>
	<g>
		<g>
			<path fill="#FFFFFF" d="M150.77,758.865c-0.021-0.019-0.043-0.03-0.063-0.046l0.005-0.006l-62.436-51.416l-0.004,0.004
				c-2.033-1.957-4.914-2.995-8.352-2.995c-8.025,0-18.314,5.419-26.852,14.149c-12.563,12.847-17.195,28.771-10.318,35.498
				c0.154,0.151,0.344,0.261,0.508,0.4l-0.221,0.272l62.436,51.415l0.223-0.271c2.004,1.71,4.697,2.647,7.902,2.647l0,0
				c8.025,0,18.314-5.422,26.85-14.149c6.018-6.153,10.434-13.175,12.426-19.773C154.929,767.788,154.181,762.204,150.77,758.865z
				 M54.385,719.834c8.203-8.388,17.99-13.595,25.535-13.595c3.021,0,5.42,0.846,7.131,2.52c2.898,2.838,3.478,7.768,1.631,13.884
				c-1.91,6.319-6.164,13.077-11.979,19.021c-8.205,8.387-17.988,13.596-25.536,13.596c0,0,0,0-0.003,0
				c-3.02,0-5.418-0.848-7.127-2.521C37.885,746.721,42.526,731.958,54.385,719.834z M51.164,757.097L51.164,757.097
				c8.027,0,18.312-5.419,26.848-14.15c6.02-6.15,10.433-13.171,12.428-19.772c1.293-4.283,1.472-8.083,0.579-11.144l53.362,43.946
				c-0.655-0.085-1.32-0.157-2.023-0.157c-8.027,0-18.316,5.419-26.85,14.148c-10.549,10.781-15.474,23.711-12.729,31.57
				L48.525,756.86C49.363,757.011,50.238,757.097,51.164,757.097z M151.114,774.06c-1.908,6.32-6.16,13.074-11.979,19.02
				c-8.203,8.385-17.987,13.596-25.538,13.596l0,0c-3.018,0-5.416-0.849-7.129-2.521c-6.151-6.017-1.51-20.778,10.352-32.902
				c8.203-8.388,17.987-13.596,25.537-13.596c2.971,0,5.332,0.832,7.035,2.45l0.107,0.086
				C152.385,763.029,152.962,767.954,151.114,774.06z"/>
		</g>
	</g>
	<g>
		<path fill="#FFFFFF" d="M86.406,395.933l-40.512,71.895l71.897,40.51l0.218-0.383l32.335-12.564l39.512-70.117l-71.229-39.779
			l-31.979,10.573L86.406,395.933z M48.305,466.358l38.627-68.552l18.568,10.464l-27.135,48.163L48.305,466.358z M148.975,494.45
			l-17.889-9.71l26.752-47.474l29.596-10.497l-38.041,67.517L148.975,494.45z M118.934,387.234l68.291,38.146l-29.795,10.571
			l-50.053-28.203L118.934,387.234z M129.879,484.084l-50.172-27.229l26.994-47.91l49.729,28.021L129.879,484.084z M88.269,396.982
			l28.998-9.594l-11.089,19.684L88.269,396.982z M119.074,506.063l11.34-20.124l16.88,9.164L119.074,506.063z M117.269,506.465
			l-68.743-38.733l30.057-9.922l50.621,27.475L117.269,506.465z"/>
	</g>
	<g>
		<path fill="#FFFFFF" d="M250.175,685.077l-109.396-69.646l117.657-64.5L250.175,685.077z M144.705,615.56l103.683,66.008
			l7.83-127.139L144.705,615.56z"/>
	</g>
	<g>
		<path fill="#FFFFFF" d="M370.593,238.92l-23.843-12.422l-61.206,22.239l22.163,60.294l23.873,14.035l0.121,0.329l61.826-22.727
			l-22.725-61.825L370.593,238.92z M369.402,287.541l-15.223-41.417l15.97-5.87l21.669,58.949L369.402,287.541z M308.602,308.283
			l-21.341-58.059l21.975,12.054l15.007,40.825l-15.334,5.361L308.602,308.283z M352.77,245.471l-43.045,15.824L287.6,249.158
			l58.687-21.323L352.77,245.471z M310.385,262.221l42.763-15.719l15.145,41.199l-43.015,15.04L310.385,262.221z M353.801,245.094
			l-6.223-16.928l21.621,11.266L353.801,245.094z M310.15,309.195l14.471-5.061l6.361,17.305L310.15,309.195z M325.658,303.773
			l43.396-15.176l22.413,11.66l-59.115,21.729L325.658,303.773z"/>
	</g>
	<g>
		<g>
			<path fill="#FFFFFF" d="M401.79,493.96c-7.366,0-16.63-8.545-22.526-20.779c-3.365-6.982-5.186-14.208-5.125-20.347
				c0.062-6.325,2.117-10.782,5.788-12.552c1.103-0.531,2.322-0.801,3.625-0.801c7.368,0,16.631,8.544,22.524,20.777
				c3.366,6.983,5.187,14.21,5.127,20.348c-0.062,6.325-2.118,10.783-5.79,12.553C404.311,493.69,403.092,493.96,401.79,493.96z
				 M383.552,440.981c-1.075,0-2.076,0.219-2.974,0.652c-3.13,1.508-4.884,5.491-4.94,11.216c-0.058,5.912,1.71,12.901,4.978,19.681
				c5.565,11.548,14.472,19.93,21.175,19.93c1.074,0,2.074-0.22,2.973-0.652c3.13-1.508,4.884-5.491,4.94-11.216
				c0.058-5.912-1.71-12.902-4.979-19.683C399.161,449.362,390.257,440.981,383.552,440.981z"/>
		</g>
		<g>
			<polygon fill="#FFFFFF" points="408.29,490.548 407.112,489.62 446.499,439.608 382.511,441.053 382.478,439.553 
				449.646,438.036 			"/>
		</g>
	</g>
	<g>
		<path fill="#FFFFFF" d="M339.374,683.151l33.071-62.232l39.955,60.992L339.374,683.151z M372.625,624.843l-29.894,56.252
			l66.009-1.121L372.625,624.843z"/>
	</g>
</g>
<g>
	<g>
		<path fill="#FFFFFF" d="M875.273,128.872c-0.021-0.019-0.043-0.03-0.063-0.046l0.005-0.006l-62.436-51.416l-0.004,0.004
			c-2.033-1.957-4.914-2.995-8.352-2.995c-8.025,0-18.314,5.419-26.852,14.149c-12.563,12.847-17.195,28.771-10.318,35.498
			c0.154,0.151,0.344,0.261,0.508,0.4l-0.221,0.272l62.436,51.415l0.223-0.271c2.004,1.71,4.697,2.647,7.902,2.647l0,0
			c8.025,0,18.314-5.422,26.85-14.149c6.018-6.153,10.434-13.175,12.426-19.773C879.433,137.795,878.685,132.211,875.273,128.872z
			 M778.889,89.841c8.203-8.388,17.99-13.595,25.535-13.595c3.021,0,5.42,0.846,7.131,2.52c2.898,2.838,3.478,7.768,1.631,13.884
			c-1.91,6.319-6.164,13.077-11.979,19.021c-8.205,8.387-17.988,13.596-25.536,13.596c0,0,0,0-0.003,0
			c-3.02,0-5.418-0.848-7.127-2.521C762.389,116.728,767.03,101.965,778.889,89.841z M775.668,127.104L775.668,127.104
			c8.027,0,18.312-5.419,26.848-14.15c6.02-6.15,10.433-13.171,12.428-19.772c1.293-4.283,1.472-8.083,0.579-11.144l53.362,43.946
			c-0.655-0.085-1.32-0.157-2.023-0.157c-8.027,0-18.316,5.419-26.85,14.148c-10.549,10.781-15.474,23.711-12.729,31.57
			l-54.254-44.678C773.867,127.018,774.742,127.104,775.668,127.104z M875.618,144.066c-1.908,6.32-6.16,13.074-11.979,19.02
			c-8.203,8.385-17.987,13.596-25.538,13.596l0,0c-3.018,0-5.416-0.849-7.129-2.521c-6.151-6.017-1.51-20.778,10.352-32.902
			c8.203-8.388,17.987-13.596,25.537-13.596c2.971,0,5.332,0.832,7.035,2.45l0.107,0.086
			C876.889,133.036,877.466,137.961,875.618,144.066z"/>
	</g>
</g>
<g>
	<g>
		<path fill="#FFFFFF" d="M1293.694,316.405c-0.016,0.013-0.026,0.027-0.038,0.041l-0.005-0.003l-42.16,39.878l0.001,0.004
			c-1.572,1.273-2.569,3.232-2.875,5.679c-0.714,5.715,2.229,13.522,7.686,20.377c8.029,10.088,18.956,14.802,24.355,10.504
			c0.121-0.096,0.217-0.222,0.33-0.324l0.176,0.181l42.159-39.878l-0.173-0.184c1.396-1.275,2.303-3.11,2.588-5.393l0,0
			c0.715-5.713-2.23-13.521-7.686-20.374c-3.845-4.832-8.451-8.601-12.973-10.606
			C1300.418,314.238,1296.374,314.274,1293.694,316.405z M1257.329,381.558c-5.241-6.587-8.077-14.018-7.407-19.39
			c0.27-2.151,1.086-3.784,2.43-4.854c2.277-1.811,5.838-1.784,10.029,0.074c4.329,1.922,8.762,5.553,12.477,10.221
			c5.242,6.588,8.082,14.017,7.409,19.39c0,0,0,0,0,0.003c-0.27,2.15-1.086,3.782-2.429,4.85
			C1275.006,395.697,1264.908,391.079,1257.329,381.558z M1283.574,387.166L1283.574,387.166c0.715-5.716-2.229-13.52-7.687-20.375
			c-3.844-4.832-8.449-8.6-12.973-10.607c-2.935-1.301-5.624-1.768-7.882-1.402l36.035-34.084c-0.119,0.459-0.229,0.927-0.292,1.426
			c-0.714,5.716,2.229,13.523,7.687,20.375c6.736,8.471,15.504,13.127,21.344,11.872l-36.637,34.653
			C1283.352,388.44,1283.491,387.824,1283.574,387.166z M1304.543,317.512c4.33,1.921,8.761,5.549,12.475,10.221
			c5.241,6.586,8.08,14.016,7.408,19.392l0,0c-0.268,2.148-1.084,3.78-2.428,4.851c-4.831,3.846-14.93-0.773-22.506-10.296
			c-5.242-6.587-8.08-14.017-7.41-19.392c0.266-2.115,1.068-3.723,2.373-4.791l0.069-0.068
			C1296.801,315.626,1300.361,315.653,1304.543,317.512z"/>
	</g>
</g>
<g>
	<g>
		<path fill="#FFFFFF" d="M875.272,758.865c-0.021-0.019-0.043-0.03-0.063-0.046l0.005-0.006l-62.436-51.416l-0.004,0.004
			c-2.033-1.957-4.914-2.995-8.352-2.995c-8.025,0-18.314,5.419-26.852,14.149c-12.563,12.847-17.195,28.771-10.318,35.498
			c0.154,0.151,0.344,0.261,0.508,0.4l-0.221,0.272l62.436,51.415l0.223-0.271c2.004,1.71,4.697,2.647,7.902,2.647l0,0
			c8.025,0,18.314-5.422,26.85-14.149c6.018-6.153,10.434-13.175,12.426-19.773C879.432,767.788,878.684,762.204,875.272,758.865z
			 M778.888,719.834c8.203-8.388,17.99-13.595,25.535-13.595c3.021,0,5.42,0.846,7.131,2.52c2.898,2.838,3.478,7.768,1.631,13.884
			c-1.91,6.319-6.164,13.077-11.979,19.021c-8.205,8.387-17.988,13.596-25.536,13.596c0,0,0,0-0.003,0
			c-3.02,0-5.418-0.848-7.127-2.521C762.388,746.721,767.029,731.958,778.888,719.834z M775.667,757.097L775.667,757.097
			c8.027,0,18.312-5.419,26.848-14.15c6.02-6.15,10.433-13.171,12.428-19.772c1.293-4.283,1.472-8.083,0.579-11.144l53.362,43.946
			c-0.655-0.085-1.32-0.157-2.023-0.157c-8.027,0-18.316,5.419-26.85,14.148c-10.549,10.781-15.474,23.711-12.729,31.57
			l-54.254-44.678C773.866,757.011,774.741,757.097,775.667,757.097z M875.617,774.06c-1.908,6.32-6.16,13.074-11.979,19.02
			c-8.203,8.385-17.987,13.596-25.538,13.596l0,0c-3.018,0-5.416-0.849-7.129-2.521c-6.151-6.017-1.51-20.778,10.352-32.902
			c8.203-8.388,17.987-13.596,25.537-13.596c2.971,0,5.332,0.832,7.035,2.45l0.107,0.086
			C876.888,763.029,877.465,767.954,875.617,774.06z"/>
	</g>
</g>
<g>
	<path fill="#FFFFFF" d="M910.396,379.799l-44.94,79.753l79.757,44.938l0.241-0.425l35.869-13.938l43.83-77.781l-79.015-44.127
		l-35.474,11.729L910.396,379.799z M868.129,457.922l42.85-76.044l20.598,11.607l-30.101,53.428L868.129,457.922z M979.803,489.085
		l-19.844-10.771l29.676-52.663l32.83-11.645l-42.199,74.896L979.803,489.085z M946.479,370.15l75.755,42.316l-33.052,11.727
		l-55.523-31.286L946.479,370.15z M958.619,477.586l-55.655-30.205l29.944-53.146l55.166,31.084L958.619,477.586z M912.461,380.964
		l32.168-10.643l-12.301,21.835L912.461,380.964z M946.635,501.968l12.578-22.323l18.726,10.165L946.635,501.968z M944.631,502.412
		l-76.257-42.967l33.342-11.006l56.154,30.478L944.631,502.412z"/>
</g>
<g>
	<path fill="#FFFFFF" d="M973.175,685.077l-109.396-69.646l117.657-64.5L973.175,685.077z M867.705,615.56l103.683,66.008
		l7.83-127.139L867.705,615.56z"/>
</g>
<g>
	<path fill="#FFFFFF" d="M1093.754,243.927l-21.734-15.823l-63.83,12.906l12.967,62.916l21.525,17.424l0.071,0.343l64.515-13.296
		l-13.295-64.514L1093.754,243.927z M1085.359,291.832l-8.906-43.218l16.664-3.435l12.678,61.514L1085.359,291.832z
		 M1022.152,303.318l-12.485-60.583l19.941,15.183l8.78,42.6l-15.96,3.026L1022.152,303.318z M1075.155,247.759l-44.917,9.259
		l-20.078-15.287l61.202-12.375L1075.155,247.759z M1030.754,258.031l44.623-9.196l8.859,42.991l-44.771,8.487L1030.754,258.031z
		 M1076.231,247.539l-3.642-17.664l19.71,14.351L1076.231,247.539z M1023.549,304.451l15.062-2.857l3.722,18.058L1023.549,304.451z
		 M1039.689,301.391l45.168-8.565l20.434,14.858l-61.686,12.712L1039.689,301.391z"/>
</g>
<g>
	<g>
		<path fill="#FFFFFF" d="M1206.384,540.238c-8.856,0-20.009-10.304-27.12-25.058c-4.062-8.429-6.26-17.148-6.187-24.553
			c0.074-7.592,2.53-12.937,6.916-15.05c1.312-0.633,2.766-0.954,4.318-0.954c8.858,0,20.01,10.303,27.116,25.056
			c4.063,8.43,6.262,17.149,6.189,24.554c-0.074,7.592-2.53,12.938-6.917,15.052
			C1209.388,539.918,1207.936,540.238,1206.384,540.238z M1184.312,476.124c-1.325,0-2.559,0.271-3.667,0.806
			c-3.845,1.853-5.999,6.723-6.067,13.713c-0.071,7.179,2.073,15.662,6.038,23.888c6.762,14.027,17.599,24.208,25.769,24.208
			c1.324,0,2.558-0.271,3.666-0.805c3.844-1.854,5.999-6.724,6.067-13.715c0.07-7.178-2.075-15.662-6.041-23.889
			C1203.319,486.304,1192.483,476.124,1184.312,476.124z"/>
	</g>
	<g>
		<polygon fill="#FFFFFF" points="1214.126,536.169 1212.948,535.241 1260.82,474.455 1183.048,476.211 1183.015,474.711 
			1263.967,472.883 		"/>
	</g>
</g>
<g>
	<g>
		<path fill="#FFFFFF" d="M618.217,127.219c-8.26,0-14.061-2.768-15.138-7.222c-0.761-3.139,0.922-6.625,4.738-9.818
			c3.674-3.072,8.93-5.547,14.8-6.966c3.384-0.819,6.72-1.234,9.917-1.234c8.26,0,14.06,2.768,15.138,7.222
			c1.545,6.386-7.039,13.758-19.542,16.784C624.748,126.804,621.413,127.219,618.217,127.219z M632.534,103.479
			c-3.078,0-6.296,0.401-9.563,1.191c-5.651,1.367-10.69,3.732-14.19,6.66c-3.355,2.807-4.862,5.759-4.244,8.313
			c0.894,3.69,6.263,6.075,13.681,6.075c3.077,0,6.294-0.401,9.56-1.191c11.297-2.734,19.74-9.592,18.438-14.974
			C645.321,105.863,639.951,103.479,632.534,103.479z"/>
	</g>
	<g>
		<polygon fill="#FFFFFF" points="604.412,118.153 602.939,117.872 612.803,66.32 646.126,106.525 644.972,107.482 613.678,69.727 
					"/>
	</g>
</g>
<g>
	<path fill="#FFFFFF" d="M1056.374,682.151l33.071-62.232l39.955,60.992L1056.374,682.151z M1089.625,623.843l-29.894,56.252
		l66.009-1.121L1089.625,623.843z"/>
</g>
<g>
	<path fill="#FFFFFF" d="M346.374,123.151l19.435-36.571l23.479,35.842L346.374,123.151z M365.914,88.887l-17.567,33.056
		l38.79-0.659L365.914,88.887z"/>
</g>
<g>
	<path fill="#FFFFFF" d="M1123.374,113.273l22.508-42.354l27.193,41.511L1123.374,113.273z M1146.004,73.59l-20.345,38.284
		l44.925-0.763L1146.004,73.59z"/>
</g>
</svg>
