<?xml version="1.0" encoding="utf-8"?>
<!-- Generator: Adobe Illustrator 16.0.0, SVG Export Plug-In . SVG Version: 6.00 Build 0)  -->
<!DOCTYPE svg PUBLIC "-//W3C//DTD SVG 1.1//EN" "http://www.w3.org/Graphics/SVG/1.1/DTD/svg11.dtd">
<svg version="1.1" id="Layer_1" xmlns="http://www.w3.org/2000/svg" xmlns:xlink="http://www.w3.org/1999/xlink" x="0px" y="0px"
	 width="775px" height="852px" viewBox="806 0 775 852" enable-background="new 806 0 775 852" xml:space="preserve">
<g>
	<g>
		<path fill="#5D5D5D" d="M302.273,128.872c-0.021-0.019-0.043-0.03-0.063-0.046l0.005-0.006l-62.436-51.416l-0.004,0.004
			c-2.033-1.957-4.914-2.995-8.353-2.995c-8.024,0-18.313,5.419-26.853,14.149c-12.562,12.847-17.194,28.771-10.317,35.498
			c0.154,0.151,0.345,0.261,0.509,0.4l-0.222,0.272l62.437,51.415l0.223-0.271c2.004,1.71,4.697,2.647,7.902,2.647l0,0
			c8.024,0,18.313-5.422,26.85-14.149c6.018-6.153,10.434-13.175,12.426-19.773C306.433,137.795,305.686,132.211,302.273,128.872z
			 M205.889,89.841c8.203-8.388,17.99-13.595,25.535-13.595c3.021,0,5.42,0.846,7.131,2.52c2.898,2.838,3.479,7.768,1.631,13.884
			c-1.91,6.319-6.164,13.077-11.979,19.021c-8.205,8.387-17.988,13.596-25.536,13.596c0,0,0,0-0.003,0
			c-3.02,0-5.418-0.848-7.127-2.521C189.389,116.728,194.029,101.965,205.889,89.841z M202.668,127.104L202.668,127.104
			c8.027,0,18.312-5.419,26.848-14.15c6.021-6.15,10.434-13.171,12.428-19.772c1.293-4.283,1.473-8.083,0.58-11.144l53.361,43.946
			c-0.654-0.085-1.32-0.157-2.023-0.157c-8.026,0-18.315,5.419-26.85,14.148c-10.549,10.781-15.474,23.711-12.729,31.57
			l-54.254-44.678C200.867,127.018,201.742,127.104,202.668,127.104z M302.618,144.066c-1.908,6.32-6.16,13.074-11.979,19.02
			c-8.203,8.385-17.986,13.596-25.537,13.596l0,0c-3.019,0-5.416-0.849-7.129-2.521c-6.152-6.017-1.511-20.778,10.352-32.902
			c8.203-8.388,17.986-13.596,25.537-13.596c2.971,0,5.332,0.832,7.035,2.45l0.106,0.086
			C303.889,133.036,304.466,137.961,302.618,144.066z"/>
	</g>
</g>
<g>
	<g>
		<path fill="#5D5D5D" d="M720.694,316.405c-0.017,0.013-0.026,0.027-0.038,0.041l-0.005-0.003l-42.16,39.878l0.001,0.004
			c-1.572,1.273-2.569,3.232-2.875,5.679c-0.714,5.715,2.229,13.522,7.686,20.377c8.029,10.088,18.956,14.802,24.355,10.504
			c0.121-0.096,0.217-0.222,0.33-0.324l0.176,0.181l42.159-39.878l-0.173-0.184c1.396-1.275,2.303-3.11,2.588-5.393l0,0
			c0.715-5.713-2.23-13.521-7.687-20.374c-3.845-4.832-8.451-8.601-12.973-10.606C727.418,314.238,723.374,314.274,720.694,316.405z
			 M684.329,381.558c-5.241-6.587-8.077-14.018-7.407-19.39c0.271-2.151,1.086-3.784,2.43-4.854
			c2.277-1.811,5.839-1.784,10.029,0.074c4.329,1.922,8.762,5.553,12.478,10.221c5.241,6.588,8.081,14.017,7.408,19.39
			c0,0,0,0,0,0.003c-0.27,2.15-1.086,3.782-2.429,4.85C702.006,395.697,691.908,391.079,684.329,381.558z M710.574,387.166
			L710.574,387.166c0.715-5.716-2.229-13.52-7.688-20.375c-3.844-4.832-8.449-8.6-12.973-10.607
			c-2.936-1.301-5.624-1.768-7.882-1.402l36.034-34.084c-0.118,0.459-0.229,0.927-0.291,1.426
			c-0.715,5.716,2.229,13.523,7.687,20.375c6.736,8.471,15.504,13.127,21.344,11.872l-36.637,34.653
			C710.352,388.44,710.491,387.824,710.574,387.166z M731.543,317.512c4.33,1.921,8.761,5.549,12.475,10.221
			c5.241,6.586,8.08,14.016,7.408,19.392l0,0c-0.268,2.148-1.084,3.78-2.428,4.851c-4.831,3.846-14.93-0.773-22.506-10.296
			c-5.242-6.587-8.08-14.017-7.41-19.392c0.266-2.115,1.068-3.723,2.373-4.791l0.069-0.068
			C723.801,315.626,727.361,315.653,731.543,317.512z"/>
	</g>
</g>
<g>
	<path fill="#5D5D5D" d="M400.175,685.077l-109.396-69.646l117.656-64.5L400.175,685.077z M294.705,615.56l103.683,66.009
		l7.83-127.14L294.705,615.56z"/>
</g>
<g>
	<path fill="#5D5D5D" d="M483.374,682.151l33.071-62.232l39.955,60.992L483.374,682.151z M516.625,623.843l-29.894,56.252
		l66.009-1.121L516.625,623.843z"/>
</g>
<g>
	<path fill="#5D5D5D" d="M550.374,113.273l22.508-42.354l27.193,41.511L550.374,113.273z M573.004,73.59l-20.345,38.284
		l44.925-0.763L573.004,73.59z"/>
</g>
<g>
	<g>
		<path fill="#FFFFFF" d="M1108.271,758.865c-0.021-0.02-0.043-0.03-0.062-0.046l0.005-0.007l-62.437-51.416l-0.004,0.005
			c-2.032-1.957-4.914-2.995-8.352-2.995c-8.025,0-18.314,5.419-26.852,14.148c-12.563,12.848-17.195,28.771-10.318,35.498
			c0.154,0.151,0.344,0.262,0.508,0.4l-0.221,0.271l62.436,51.415l0.224-0.271c2.004,1.71,4.696,2.646,7.901,2.646l0,0
			c8.025,0,18.314-5.422,26.851-14.148c6.018-6.153,10.434-13.175,12.426-19.773
			C1112.432,767.788,1111.684,762.204,1108.271,758.865z M1011.889,719.834c8.202-8.388,17.989-13.595,25.534-13.595
			c3.021,0,5.42,0.846,7.132,2.52c2.897,2.838,3.478,7.769,1.631,13.884c-1.91,6.319-6.164,13.077-11.979,19.021
			c-8.205,8.387-17.988,13.596-25.536,13.596c0,0,0,0-0.003,0c-3.021,0-5.418-0.848-7.127-2.521
			C995.389,746.721,1000.029,731.958,1011.889,719.834z M1008.667,757.097L1008.667,757.097c8.026,0,18.312-5.419,26.849-14.149
			c6.02-6.15,10.433-13.171,12.428-19.772c1.293-4.283,1.472-8.083,0.578-11.144l53.362,43.945
			c-0.655-0.085-1.319-0.156-2.022-0.156c-8.027,0-18.316,5.419-26.851,14.147c-10.549,10.781-15.474,23.711-12.729,31.57
			l-54.255-44.678C1006.866,757.011,1007.741,757.097,1008.667,757.097z M1108.617,774.06c-1.908,6.32-6.16,13.074-11.979,19.021
			c-8.203,8.385-17.988,13.596-25.539,13.596l0,0c-3.018,0-5.416-0.849-7.129-2.521c-6.15-6.018-1.51-20.778,10.353-32.902
			c8.202-8.388,17.987-13.596,25.536-13.596c2.972,0,5.332,0.832,7.035,2.45l0.107,0.086
			C1109.889,763.029,1110.465,767.954,1108.617,774.06z"/>
	</g>
</g>
<g>
	<path fill="#FFFFFF" d="M1143.396,379.799l-44.94,79.753l79.757,44.938l0.241-0.425l35.869-13.938l43.83-77.781l-79.016-44.127
		l-35.474,11.729L1143.396,379.799z M1101.129,457.922l42.85-76.044l20.599,11.607l-30.102,53.428L1101.129,457.922z
		 M1212.803,489.085l-19.844-10.771l29.676-52.663l32.83-11.646l-42.199,74.896L1212.803,489.085z M1179.479,370.15l75.756,42.316
		l-33.053,11.728l-55.522-31.286L1179.479,370.15z M1191.619,477.586l-55.655-30.205l29.944-53.146l55.166,31.084L1191.619,477.586z
		 M1145.461,380.964l32.168-10.643l-12.301,21.835L1145.461,380.964z M1179.635,501.968l12.578-22.323l18.727,10.165
		L1179.635,501.968z M1177.631,502.412l-76.257-42.967l33.342-11.006l56.154,30.478L1177.631,502.412z"/>
</g>
<g>
	<path fill="#FFFFFF" d="M1326.754,243.927l-21.734-15.823l-63.829,12.906l12.967,62.916l21.524,17.424l0.071,0.343l64.515-13.296
		l-13.295-64.514L1326.754,243.927z M1318.359,291.832l-8.906-43.218l16.664-3.435l12.678,61.514L1318.359,291.832z
		 M1255.152,303.318l-12.485-60.583l19.941,15.183l8.779,42.6l-15.96,3.026L1255.152,303.318z M1308.155,247.759l-44.917,9.259
		l-20.078-15.288l61.202-12.375L1308.155,247.759z M1263.754,258.031l44.623-9.196l8.859,42.991l-44.771,8.487L1263.754,258.031z
		 M1309.231,247.539l-3.643-17.664l19.71,14.351L1309.231,247.539z M1256.549,304.451l15.062-2.857l3.722,18.058L1256.549,304.451z
		 M1272.689,301.391l45.168-8.565l20.434,14.858l-61.686,12.712L1272.689,301.391z"/>
</g>
<g>
	<g>
		<path fill="#FFFFFF" d="M1439.384,540.238c-8.855,0-20.009-10.305-27.12-25.059c-4.062-8.429-6.26-17.147-6.187-24.553
			c0.074-7.592,2.53-12.937,6.916-15.05c1.312-0.633,2.766-0.954,4.317-0.954c8.858,0,20.011,10.303,27.116,25.056
			c4.063,8.431,6.263,17.149,6.189,24.555c-0.074,7.592-2.53,12.938-6.917,15.052
			C1442.388,539.918,1440.936,540.238,1439.384,540.238z M1417.312,476.124c-1.325,0-2.56,0.271-3.668,0.806
			c-3.845,1.854-5.998,6.724-6.066,13.713c-0.071,7.18,2.073,15.662,6.038,23.889c6.762,14.026,17.599,24.208,25.769,24.208
			c1.324,0,2.559-0.271,3.666-0.806c3.844-1.854,5.999-6.724,6.067-13.715c0.07-7.178-2.075-15.662-6.041-23.889
			C1436.319,486.304,1425.483,476.124,1417.312,476.124z"/>
	</g>
	<g>
		<polygon fill="#FFFFFF" points="1447.126,536.169 1445.948,535.241 1493.82,474.455 1416.048,476.211 1416.015,474.711 
			1496.967,472.883 		"/>
	</g>
</g>
<g>
	<g>
		<path fill="#FFFFFF" d="M851.217,127.219c-8.26,0-14.061-2.768-15.138-7.222c-0.761-3.139,0.922-6.625,4.737-9.818
			c3.675-3.072,8.931-5.547,14.801-6.966c3.384-0.819,6.72-1.234,9.917-1.234c8.26,0,14.06,2.768,15.138,7.222
			c1.545,6.386-7.039,13.758-19.542,16.784C857.748,126.804,854.413,127.219,851.217,127.219z M865.534,103.479
			c-3.078,0-6.296,0.401-9.563,1.191c-5.65,1.367-10.689,3.732-14.189,6.66c-3.355,2.807-4.862,5.759-4.244,8.313
			c0.895,3.69,6.263,6.075,13.681,6.075c3.077,0,6.294-0.401,9.56-1.191c11.298-2.734,19.74-9.592,18.438-14.974
			C878.32,105.863,872.951,103.479,865.534,103.479z"/>
	</g>
	<g>
		<polygon fill="#FFFFFF" points="837.412,118.153 835.939,117.872 845.803,66.32 879.126,106.525 877.973,107.482 846.678,69.727 
					"/>
	</g>
</g>
</svg>
