<?xml version="1.0" encoding="utf-8"?>
<!-- Generator: Adobe Illustrator 16.0.0, SVG Export Plug-In . SVG Version: 6.00 Build 0)  -->
<!DOCTYPE svg PUBLIC "-//W3C//DTD SVG 1.1//EN" "http://www.w3.org/Graphics/SVG/1.1/DTD/svg11.dtd">
<svg version="1.1" id="Layer_1" xmlns="http://www.w3.org/2000/svg" xmlns:xlink="http://www.w3.org/1999/xlink" x="0px" y="0px"
	 width="480px" height="852px" viewBox="0 0 480 852" enable-background="new 0 0 480 852" xml:space="preserve">
<g>
	<g>
		<path fill="#FFFFFF" d="M150.77,133.675c-0.021-0.019-0.043-0.03-0.062-0.046l0.005-0.006L88.275,82.207l-0.004,0.004
			c-2.033-1.957-4.914-2.995-8.353-2.995c-8.024,0-18.313,5.419-26.853,14.149c-12.562,12.847-17.194,28.771-10.317,35.498
			c0.153,0.151,0.344,0.261,0.508,0.4l-0.221,0.272l62.437,51.415l0.223-0.271c2.004,1.71,4.697,2.647,7.902,2.647l0,0
			c8.024,0,18.313-5.422,26.85-14.149c6.018-6.153,10.434-13.175,12.426-19.772C154.93,142.598,154.182,137.014,150.77,133.675z
			 M54.385,94.644c8.203-8.388,17.99-13.595,25.535-13.595c3.021,0,5.42,0.846,7.131,2.52c2.898,2.838,3.479,7.768,1.631,13.884
			c-1.91,6.319-6.164,13.077-11.979,19.021c-8.205,8.387-17.988,13.596-25.536,13.596c0,0,0,0-0.003,0
			c-3.02,0-5.418-0.848-7.127-2.521C37.885,121.53,42.525,106.768,54.385,94.644z M51.164,131.906L51.164,131.906
			c8.027,0,18.312-5.419,26.848-14.15c6.021-6.15,10.434-13.171,12.428-19.772c1.293-4.283,1.473-8.083,0.58-11.144l53.361,43.946
			c-0.654-0.085-1.32-0.157-2.023-0.157c-8.026,0-18.315,5.419-26.85,14.148c-10.549,10.781-15.474,23.711-12.729,31.57
			L48.525,131.67C49.363,131.82,50.238,131.906,51.164,131.906z M151.113,148.869c-1.907,6.32-6.159,13.074-11.979,19.02
			c-8.203,8.385-17.986,13.596-25.537,13.596l0,0c-3.019,0-5.416-0.849-7.13-2.521c-6.151-6.017-1.51-20.778,10.353-32.902
			c8.203-8.388,17.986-13.596,25.537-13.596c2.971,0,5.332,0.832,7.035,2.45l0.106,0.086
			C152.385,137.839,152.962,142.764,151.113,148.869z"/>
	</g>
</g>
<g>
	<path fill="#FFFFFF" d="M250.175,685.077l-109.396-69.646l117.656-64.5L250.175,685.077z M144.705,615.56l103.684,66.009
		l7.829-127.14L144.705,615.56z"/>
</g>
<g>
	<g>
		<path fill="#FFFFFF" d="M401.79,493.96c-7.366,0-16.63-8.545-22.526-20.779c-3.364-6.981-5.186-14.208-5.125-20.347
			c0.062-6.325,2.117-10.782,5.788-12.552c1.104-0.531,2.322-0.801,3.625-0.801c7.368,0,16.631,8.544,22.524,20.776
			c3.366,6.983,5.187,14.21,5.127,20.349c-0.062,6.324-2.118,10.782-5.79,12.553C404.311,493.69,403.092,493.96,401.79,493.96z
			 M383.552,440.981c-1.075,0-2.076,0.219-2.974,0.651c-3.13,1.508-4.884,5.491-4.94,11.216c-0.058,5.912,1.71,12.901,4.979,19.682
			c5.564,11.548,14.472,19.93,21.175,19.93c1.074,0,2.074-0.22,2.973-0.652c3.13-1.508,4.885-5.49,4.94-11.216
			c0.058-5.912-1.71-12.901-4.979-19.683C399.161,449.362,390.257,440.981,383.552,440.981z"/>
	</g>
	<g>
		<polygon fill="#FFFFFF" points="408.29,490.548 407.112,489.62 446.499,439.608 382.511,441.053 382.478,439.553 449.646,438.036 
					"/>
	</g>
</g>
<g>
	<path fill="#FFFFFF" d="M346.374,123.151l19.435-36.571l23.479,35.842L346.374,123.151z M365.914,88.887l-17.567,33.056
		l38.79-0.659L365.914,88.887z"/>
</g>
<g>
	<g>
		<path fill="#5D5D5D" d="M668.77,758.865c-0.021-0.02-0.043-0.03-0.062-0.046l0.005-0.007l-62.437-51.416l-0.004,0.005
			c-2.033-1.957-4.914-2.995-8.352-2.995c-8.025,0-18.314,5.419-26.852,14.148c-12.563,12.848-17.195,28.771-10.318,35.498
			c0.154,0.151,0.344,0.262,0.508,0.4l-0.221,0.271l62.436,51.415l0.223-0.271c2.005,1.71,4.697,2.646,7.902,2.646l0,0
			c8.025,0,18.314-5.422,26.851-14.148c6.018-6.153,10.434-13.175,12.426-19.773C672.93,767.788,672.182,762.204,668.77,758.865z
			 M572.385,719.834c8.203-8.388,17.99-13.595,25.535-13.595c3.021,0,5.42,0.846,7.131,2.52c2.898,2.838,3.479,7.769,1.631,13.884
			c-1.91,6.319-6.164,13.077-11.979,19.021c-8.205,8.387-17.988,13.596-25.536,13.596c0,0,0,0-0.003,0
			c-3.02,0-5.418-0.848-7.127-2.521C555.885,746.721,560.525,731.958,572.385,719.834z M569.164,757.097L569.164,757.097
			c8.027,0,18.312-5.419,26.848-14.149c6.021-6.15,10.434-13.171,12.428-19.772c1.293-4.283,1.473-8.083,0.58-11.144l53.361,43.945
			c-0.654-0.085-1.32-0.156-2.023-0.156c-8.026,0-18.315,5.419-26.85,14.147c-10.549,10.781-15.474,23.711-12.729,31.57
			l-54.254-44.678C567.363,757.011,568.238,757.097,569.164,757.097z M669.113,774.06c-1.907,6.32-6.159,13.074-11.979,19.021
			c-8.203,8.385-17.986,13.596-25.537,13.596l0,0c-3.019,0-5.416-0.849-7.13-2.521c-6.151-6.018-1.51-20.778,10.353-32.902
			c8.203-8.388,17.986-13.596,25.537-13.596c2.971,0,5.332,0.832,7.035,2.45l0.106,0.086
			C670.385,763.029,670.962,767.954,669.113,774.06z"/>
	</g>
</g>
<g>
	<path fill="#5D5D5D" d="M604.406,395.933l-40.512,71.895l71.896,40.51l0.218-0.383l32.335-12.564l39.512-70.116l-71.229-39.779
		l-31.979,10.573L604.406,395.933z M566.305,466.358l38.627-68.553L623.5,408.27l-27.135,48.163L566.305,466.358z M666.975,494.45
		l-17.889-9.71l26.752-47.475l29.596-10.497l-38.041,67.518L666.975,494.45z M636.934,387.234l68.291,38.146l-29.795,10.571
		l-50.053-28.203L636.934,387.234z M647.879,484.084l-50.172-27.229l26.994-47.91l49.729,28.021L647.879,484.084z M606.27,396.982
		l28.998-9.594l-11.09,19.684L606.27,396.982z M637.074,506.062l11.34-20.123l16.88,9.163L637.074,506.062z M635.27,506.465
		l-68.744-38.732l30.058-9.923l50.621,27.476L635.27,506.465z"/>
</g>
<g>
	<path fill="#5D5D5D" d="M888.593,238.92l-23.843-12.422l-61.206,22.239l22.163,60.294l23.873,14.035l0.121,0.329l61.826-22.727
		l-22.726-61.825L888.593,238.92z M887.402,287.541l-15.224-41.417l15.971-5.87l21.669,58.949L887.402,287.541z M826.602,308.283
		l-21.341-58.059l21.976,12.054l15.007,40.825l-15.334,5.361L826.602,308.283z M870.77,245.471l-43.045,15.824L805.6,249.158
		l58.688-21.323L870.77,245.471z M828.385,262.221l42.764-15.719l15.145,41.199l-43.015,15.04L828.385,262.221z M871.801,245.094
		l-6.223-16.928l21.621,11.266L871.801,245.094z M828.15,309.195l14.471-5.061l6.361,17.305L828.15,309.195z M843.658,303.773
		l43.396-15.176l22.413,11.66l-59.115,21.729L843.658,303.773z"/>
</g>
<g>
	<path fill="#5D5D5D" d="M857.374,683.151l33.071-62.232l39.955,60.992L857.374,683.151z M890.625,624.843l-29.894,56.252
		l66.009-1.121L890.625,624.843z"/>
</g>
</svg>
