<?xml version="1.0" encoding="utf-8"?>
<!-- Generator: Adobe Illustrator 16.0.0, SVG Export Plug-In . SVG Version: 6.00 Build 0)  -->
<!DOCTYPE svg PUBLIC "-//W3C//DTD SVG 1.1//EN" "http://www.w3.org/Graphics/SVG/1.1/DTD/svg11.dtd">
<svg version="1.1" id="Layer_1" xmlns="http://www.w3.org/2000/svg" xmlns:xlink="http://www.w3.org/1999/xlink" x="0px" y="0px"
	 width="775px" height="852px" viewBox="0 0 775 852" enable-background="new 0 0 775 852" xml:space="preserve">
<g>
	<g>
		<path fill="#FFFFFF" d="M302.273,128.872c-0.021-0.019-0.043-0.03-0.063-0.046l0.005-0.006l-62.436-51.416l-0.004,0.004
			c-2.033-1.957-4.914-2.995-8.352-2.995c-8.025,0-18.314,5.419-26.852,14.149c-12.563,12.847-17.195,28.771-10.318,35.498
			c0.154,0.151,0.344,0.261,0.508,0.4l-0.221,0.272l62.436,51.415l0.223-0.271c2.004,1.71,4.697,2.647,7.902,2.647l0,0
			c8.025,0,18.314-5.422,26.85-14.149c6.018-6.153,10.434-13.175,12.426-19.773C306.433,137.795,305.685,132.211,302.273,128.872z
			 M205.889,89.841c8.203-8.388,17.99-13.595,25.535-13.595c3.021,0,5.42,0.846,7.131,2.52c2.898,2.838,3.478,7.768,1.631,13.884
			c-1.91,6.319-6.164,13.077-11.979,19.021c-8.205,8.387-17.988,13.596-25.536,13.596c0,0,0,0-0.003,0
			c-3.02,0-5.418-0.848-7.127-2.521C189.389,116.728,194.03,101.965,205.889,89.841z M202.668,127.104L202.668,127.104
			c8.027,0,18.312-5.419,26.848-14.15c6.02-6.15,10.433-13.171,12.428-19.772c1.293-4.283,1.472-8.083,0.579-11.144l53.362,43.946
			c-0.655-0.085-1.32-0.157-2.023-0.157c-8.027,0-18.316,5.419-26.85,14.148c-10.549,10.781-15.474,23.711-12.729,31.57
			l-54.254-44.678C200.867,127.018,201.742,127.104,202.668,127.104z M302.618,144.066c-1.908,6.32-6.16,13.074-11.979,19.02
			c-8.203,8.385-17.987,13.596-25.538,13.596l0,0c-3.018,0-5.416-0.849-7.129-2.521c-6.151-6.017-1.51-20.778,10.352-32.902
			c8.203-8.388,17.987-13.596,25.537-13.596c2.971,0,5.332,0.832,7.035,2.45l0.107,0.086
			C303.889,133.036,304.466,137.961,302.618,144.066z"/>
	</g>
</g>
<g>
	<g>
		<path fill="#FFFFFF" d="M720.694,316.405c-0.016,0.013-0.026,0.027-0.038,0.041l-0.005-0.003l-42.16,39.878l0.001,0.004
			c-1.572,1.273-2.569,3.232-2.875,5.679c-0.714,5.715,2.229,13.522,7.686,20.377c8.029,10.088,18.956,14.802,24.355,10.504
			c0.121-0.096,0.217-0.222,0.33-0.324l0.176,0.181l42.159-39.878l-0.173-0.184c1.396-1.275,2.303-3.11,2.588-5.393l0,0
			c0.715-5.713-2.23-13.521-7.686-20.374c-3.845-4.832-8.451-8.601-12.973-10.606C727.418,314.238,723.374,314.274,720.694,316.405z
			 M684.329,381.558c-5.241-6.587-8.077-14.018-7.407-19.39c0.27-2.151,1.086-3.784,2.43-4.854
			c2.277-1.811,5.838-1.784,10.029,0.074c4.329,1.922,8.762,5.553,12.477,10.221c5.242,6.588,8.082,14.017,7.409,19.39
			c0,0,0,0,0,0.003c-0.27,2.15-1.086,3.782-2.429,4.85C702.006,395.697,691.908,391.079,684.329,381.558z M710.574,387.166
			L710.574,387.166c0.715-5.716-2.229-13.52-7.687-20.375c-3.844-4.832-8.449-8.6-12.973-10.607
			c-2.935-1.301-5.624-1.768-7.882-1.402l36.035-34.084c-0.119,0.459-0.229,0.927-0.292,1.426
			c-0.714,5.716,2.229,13.523,7.687,20.375c6.736,8.471,15.504,13.127,21.344,11.872l-36.637,34.653
			C710.352,388.44,710.491,387.824,710.574,387.166z M731.543,317.512c4.33,1.921,8.761,5.549,12.475,10.221
			c5.241,6.586,8.08,14.016,7.408,19.392l0,0c-0.268,2.148-1.084,3.78-2.428,4.851c-4.831,3.846-14.93-0.773-22.506-10.296
			c-5.242-6.587-8.08-14.017-7.41-19.392c0.266-2.115,1.068-3.723,2.373-4.791l0.069-0.068
			C723.801,315.626,727.361,315.653,731.543,317.512z"/>
	</g>
</g>
<g>
	<g>
		<path fill="#FFFFFF" d="M302.272,758.865c-0.021-0.019-0.043-0.03-0.063-0.046l0.005-0.006l-62.436-51.416l-0.004,0.004
			c-2.033-1.957-4.914-2.995-8.352-2.995c-8.025,0-18.314,5.419-26.852,14.149c-12.563,12.847-17.195,28.771-10.318,35.498
			c0.154,0.151,0.344,0.261,0.508,0.4l-0.221,0.272l62.436,51.415l0.223-0.271c2.004,1.71,4.697,2.647,7.902,2.647l0,0
			c8.025,0,18.314-5.422,26.85-14.149c6.018-6.153,10.434-13.175,12.426-19.773C306.432,767.788,305.684,762.204,302.272,758.865z
			 M205.888,719.834c8.203-8.388,17.99-13.595,25.535-13.595c3.021,0,5.42,0.846,7.131,2.52c2.898,2.838,3.478,7.768,1.631,13.884
			c-1.91,6.319-6.164,13.077-11.979,19.021c-8.205,8.387-17.988,13.596-25.536,13.596c0,0,0,0-0.003,0
			c-3.02,0-5.418-0.848-7.127-2.521C189.388,746.721,194.029,731.958,205.888,719.834z M202.667,757.097L202.667,757.097
			c8.027,0,18.312-5.419,26.848-14.15c6.02-6.15,10.433-13.171,12.428-19.772c1.293-4.283,1.472-8.083,0.579-11.144l53.362,43.946
			c-0.655-0.085-1.32-0.157-2.023-0.157c-8.027,0-18.316,5.419-26.85,14.148c-10.549,10.781-15.474,23.711-12.729,31.57
			l-54.254-44.678C200.866,757.011,201.741,757.097,202.667,757.097z M302.617,774.06c-1.908,6.32-6.16,13.074-11.979,19.02
			c-8.203,8.385-17.987,13.596-25.538,13.596l0,0c-3.018,0-5.416-0.849-7.129-2.521c-6.151-6.017-1.51-20.778,10.352-32.902
			c8.203-8.388,17.987-13.596,25.537-13.596c2.971,0,5.332,0.832,7.035,2.45l0.107,0.086
			C303.888,763.029,304.465,767.954,302.617,774.06z"/>
	</g>
</g>
<g>
	<path fill="#FFFFFF" d="M337.396,379.799l-44.94,79.753l79.757,44.938l0.241-0.425l35.869-13.938l43.83-77.781l-79.015-44.127
		l-35.474,11.729L337.396,379.799z M295.129,457.922l42.85-76.044l20.598,11.607l-30.101,53.428L295.129,457.922z M406.803,489.085
		l-19.844-10.771l29.676-52.663l32.83-11.645l-42.199,74.896L406.803,489.085z M373.479,370.15l75.755,42.316l-33.052,11.727
		l-55.523-31.286L373.479,370.15z M385.619,477.586l-55.655-30.205l29.944-53.146l55.166,31.084L385.619,477.586z M339.461,380.964
		l32.168-10.643l-12.301,21.835L339.461,380.964z M373.635,501.968l12.578-22.323l18.726,10.165L373.635,501.968z M371.631,502.412
		l-76.257-42.967l33.342-11.006l56.154,30.478L371.631,502.412z"/>
</g>
<g>
	<path fill="#FFFFFF" d="M400.175,685.077l-109.396-69.646l117.657-64.5L400.175,685.077z M294.705,615.56l103.683,66.008
		l7.83-127.139L294.705,615.56z"/>
</g>
<g>
	<path fill="#FFFFFF" d="M520.754,243.927l-21.734-15.823l-63.83,12.906l12.967,62.916l21.525,17.424l0.071,0.343l64.515-13.296
		l-13.295-64.514L520.754,243.927z M512.359,291.832l-8.906-43.218l16.664-3.435l12.678,61.514L512.359,291.832z M449.152,303.318
		l-12.485-60.583l19.941,15.183l8.78,42.6l-15.96,3.026L449.152,303.318z M502.155,247.759l-44.917,9.259L437.16,241.73
		l61.202-12.375L502.155,247.759z M457.754,258.031l44.623-9.196l8.859,42.991l-44.771,8.487L457.754,258.031z M503.231,247.539
		l-3.642-17.664l19.71,14.351L503.231,247.539z M450.549,304.451l15.062-2.857l3.722,18.058L450.549,304.451z M466.689,301.391
		l45.168-8.565l20.434,14.858l-61.686,12.712L466.689,301.391z"/>
</g>
<g>
	<g>
		<path fill="#FFFFFF" d="M633.384,540.238c-8.856,0-20.009-10.304-27.12-25.058c-4.062-8.429-6.26-17.148-6.187-24.553
			c0.074-7.592,2.53-12.937,6.916-15.05c1.312-0.633,2.766-0.954,4.318-0.954c8.858,0,20.01,10.303,27.116,25.056
			c4.063,8.43,6.262,17.149,6.189,24.554c-0.074,7.592-2.53,12.938-6.917,15.052C636.388,539.918,634.936,540.238,633.384,540.238z
			 M611.312,476.124c-1.325,0-2.559,0.271-3.667,0.806c-3.845,1.853-5.999,6.723-6.067,13.713
			c-0.071,7.179,2.073,15.662,6.038,23.888c6.762,14.027,17.599,24.208,25.769,24.208c1.324,0,2.558-0.271,3.666-0.805
			c3.844-1.854,5.999-6.724,6.067-13.715c0.07-7.178-2.075-15.662-6.041-23.889C630.319,486.304,619.483,476.124,611.312,476.124z"
			/>
	</g>
	<g>
		<polygon fill="#FFFFFF" points="641.126,536.169 639.948,535.241 687.82,474.455 610.048,476.211 610.015,474.711 
			690.967,472.883 		"/>
	</g>
</g>
<g>
	<g>
		<path fill="#FFFFFF" d="M45.217,127.219c-8.26,0-14.061-2.768-15.138-7.222c-0.761-3.139,0.922-6.625,4.738-9.818
			c3.674-3.072,8.93-5.547,14.8-6.966c3.384-0.819,6.72-1.234,9.917-1.234c8.26,0,14.06,2.768,15.138,7.222
			c1.545,6.386-7.039,13.758-19.542,16.784C51.748,126.804,48.413,127.219,45.217,127.219z M59.534,103.479
			c-3.078,0-6.296,0.401-9.563,1.191c-5.651,1.367-10.69,3.732-14.19,6.66c-3.355,2.807-4.862,5.759-4.244,8.313
			c0.894,3.69,6.263,6.075,13.681,6.075c3.077,0,6.294-0.401,9.56-1.191c11.297-2.734,19.74-9.592,18.438-14.974
			C72.321,105.863,66.951,103.479,59.534,103.479z"/>
	</g>
	<g>
		<polygon fill="#FFFFFF" points="31.412,118.153 29.939,117.872 39.803,66.32 73.126,106.525 71.972,107.482 40.678,69.727 		"/>
	</g>
</g>
<g>
	<path fill="#FFFFFF" d="M483.374,682.151l33.071-62.232l39.955,60.992L483.374,682.151z M516.625,623.843l-29.894,56.252
		l66.009-1.121L516.625,623.843z"/>
</g>
<g>
	<path fill="#FFFFFF" d="M550.374,113.273l22.508-42.354l27.193,41.511L550.374,113.273z M573.004,73.59l-20.345,38.284
		l44.925-0.763L573.004,73.59z"/>
</g>
</svg>
