<?xml version="1.0" encoding="utf-8"?>
<!-- Generator: Adobe Illustrator 16.0.0, SVG Export Plug-In . SVG Version: 6.00 Build 0)  -->
<!DOCTYPE svg PUBLIC "-//W3C//DTD SVG 1.1//EN" "http://www.w3.org/Graphics/SVG/1.1/DTD/svg11.dtd">
<svg version="1.1" id="Layer_1" xmlns="http://www.w3.org/2000/svg" xmlns:xlink="http://www.w3.org/1999/xlink" x="0px" y="0px"
	 width="100px" height="100px" viewBox="0 0 100 100" enable-background="new 0 0 100 100" xml:space="preserve">
<path fill="#FFFFFF" d="M79.396,53.348c-0.011-0.01-0.023-0.016-0.034-0.025l0.002-0.002l-34-28l-0.002,0.002
	c-1.107-1.066-2.677-1.632-4.548-1.632c-4.37,0-9.973,2.952-14.622,7.705c-6.843,6.997-9.365,15.669-5.62,19.333
	c0.084,0.082,0.188,0.141,0.278,0.217l-0.122,0.148l34,27.999l0.121-0.147c1.092,0.931,2.559,1.441,4.305,1.441l0,0
	c4.37,0,9.973-2.952,14.621-7.705c3.277-3.351,5.681-7.174,6.767-10.768C81.661,58.207,81.254,55.166,79.396,53.348z M26.908,32.093
	c4.467-4.567,9.796-7.404,13.907-7.404c1.645,0,2.951,0.462,3.882,1.374c1.579,1.544,1.894,4.229,0.888,7.56
	c-1.04,3.442-3.357,7.121-6.523,10.358c-4.468,4.567-9.796,7.404-13.906,7.404c0,0,0,0-0.001,0c-1.645,0-2.951-0.462-3.882-1.373
	C17.922,46.734,20.45,38.696,26.908,32.093z M25.154,52.385C25.154,52.385,25.154,52.385,25.154,52.385
	c4.371,0,9.973-2.952,14.622-7.705c3.277-3.35,5.68-7.174,6.766-10.768c0.705-2.333,0.802-4.401,0.315-6.068l29.06,23.931
	c-0.356-0.047-0.719-0.086-1.103-0.086c-4.37,0-9.973,2.952-14.621,7.705c-5.744,5.871-8.426,12.912-6.932,17.193l-29.544-24.33
	C24.174,52.338,24.651,52.385,25.154,52.385z M79.584,61.623c-1.039,3.441-3.356,7.12-6.523,10.357
	c-4.467,4.567-9.795,7.404-13.906,7.404l0,0c-1.645,0-2.951-0.462-3.883-1.373c-3.35-3.277-0.822-11.315,5.637-17.918
	c4.467-4.567,9.795-7.404,13.906-7.404c1.618,0,2.904,0.453,3.832,1.335l0.057,0.046C80.275,55.615,80.59,58.297,79.584,61.623z"/>
</svg>
